<?xml version="1.0" encoding="UTF-8"?>
<svg version="1.1" xmlns="http://www.w3.org/2000/svg" width="176" height="180">
<path d="M0 0 C1.12019531 -0.00128906 2.24039063 -0.00257812 3.39453125 -0.00390625 C4.57402344 -0.00003906 5.75351562 0.00382812 6.96875 0.0078125 C8.73798828 0.00201172 8.73798828 0.00201172 10.54296875 -0.00390625 C12.22326172 -0.00197266 12.22326172 -0.00197266 13.9375 0 C14.97326172 0.00112793 16.00902344 0.00225586 17.07617188 0.00341797 C19.46875 0.1328125 19.46875 0.1328125 20.46875 1.1328125 C20.55623207 3.05948757 20.57572334 4.98933111 20.56640625 6.91796875 C20.56390869 7.97121338 20.56141113 9.02445801 20.55883789 10.10961914 C20.54973389 11.45789795 20.54062988 12.80617676 20.53125 14.1953125 C20.510625 18.4646875 20.49 22.7340625 20.46875 27.1328125 C11.55875 27.1328125 2.64875 27.1328125 -6.53125 27.1328125 C-7.29501686 23.31397821 -7.6255284 20.83129399 -7.4453125 17.0859375 C-7.40148438 16.15910156 -7.35765625 15.23226562 -7.3125 14.27734375 C-7.2609375 13.32214844 -7.209375 12.36695312 -7.15625 11.3828125 C-7.11242188 10.41214844 -7.06859375 9.44148438 -7.0234375 8.44140625 C-6.59877746 0.00718597 -6.59877746 0.00718597 0 0 Z " fill="#E46D55" transform="translate(56.53125,101.8671875)"/>
<path d="M0 0 C4.31248609 -0.02886537 8.62494762 -0.04675255 12.9375 -0.0625 C14.16919922 -0.07087891 15.40089844 -0.07925781 16.66992188 -0.08789062 C17.83974609 -0.09111328 19.00957031 -0.09433594 20.21484375 -0.09765625 C21.84087524 -0.10551147 21.84087524 -0.10551147 23.49975586 -0.11352539 C26 0 26 0 27 1 C27.09959621 2.84159023 27.13080411 4.68696967 27.1328125 6.53125 C27.13474609 8.21154297 27.13474609 8.21154297 27.13671875 9.92578125 C27.13285156 11.10527344 27.12898438 12.28476562 27.125 13.5 C27.13080078 15.26923828 27.13080078 15.26923828 27.13671875 17.07421875 C27.13542969 18.19441406 27.13414062 19.31460938 27.1328125 20.46875 C27.13168457 21.50451172 27.13055664 22.54027344 27.12939453 23.60742188 C27 26 27 26 26 27 C24.07332493 27.08748207 22.14348139 27.10697334 20.21484375 27.09765625 C19.04501953 27.09443359 17.87519531 27.09121094 16.66992188 27.08789062 C15.43822266 27.07951172 14.20652344 27.07113281 12.9375 27.0625 C11.08415039 27.05573242 11.08415039 27.05573242 9.19335938 27.04882812 C6.12885883 27.03699608 3.06445279 27.02051173 0 27 C-1.09564584 21.08351245 -0.93766323 15.55217508 -0.5625 9.5625 C-0.51029297 8.64017578 -0.45808594 7.71785156 -0.40429688 6.76757812 C-0.27569984 4.51128464 -0.1407929 2.25555971 0 0 Z " fill="#5BA096" transform="translate(101,13)"/>
<path d="M0 0 C4.31248609 -0.02886537 8.62494762 -0.04675255 12.9375 -0.0625 C14.16919922 -0.07087891 15.40089844 -0.07925781 16.66992188 -0.08789062 C17.83974609 -0.09111328 19.00957031 -0.09433594 20.21484375 -0.09765625 C21.84087524 -0.10551147 21.84087524 -0.10551147 23.49975586 -0.11352539 C26 0 26 0 27 1 C27.08737645 2.85369611 27.10698153 4.71067541 27.09765625 6.56640625 C27.09443359 7.69111328 27.09121094 8.81582031 27.08789062 9.97460938 C27.07951172 11.15861328 27.07113281 12.34261719 27.0625 13.5625 C27.05798828 14.75037109 27.05347656 15.93824219 27.04882812 17.16210938 C27.03699675 20.10812226 27.02051287 23.05403681 27 26 C23.69959882 27.98974803 21.39656905 28.18869828 17.578125 27.9765625 C16.04091797 27.89921875 16.04091797 27.89921875 14.47265625 27.8203125 C12.87744141 27.72363281 12.87744141 27.72363281 11.25 27.625 C10.17105469 27.56828125 9.09210937 27.5115625 7.98046875 27.453125 C5.31962301 27.31184116 2.65974769 27.16044734 0 27 C-0.19622046 22.87536584 -0.38050216 18.75028427 -0.5625 14.625 C-0.61857422 13.449375 -0.67464844 12.27375 -0.73242188 11.0625 C-0.78076172 9.94101563 -0.82910156 8.81953125 -0.87890625 7.6640625 C-0.9260376 6.62717285 -0.97316895 5.5902832 -1.02172852 4.52197266 C-1 2 -1 2 0 0 Z " fill="#D86D57" transform="translate(50,141)"/>
<path d="M0 0 C8.91 0 17.82 0 27 0 C27.020625 4.269375 27.04125 8.53875 27.0625 12.9375 C27.071604 14.28577881 27.08070801 15.63405762 27.09008789 17.02319336 C27.09258545 18.07643799 27.09508301 19.12968262 27.09765625 20.21484375 C27.10551147 21.84087524 27.10551147 21.84087524 27.11352539 23.49975586 C27 26 27 26 26 27 C24.14630389 27.08737645 22.28932459 27.10698153 20.43359375 27.09765625 C19.30888672 27.09443359 18.18417969 27.09121094 17.02539062 27.08789062 C15.84138672 27.07951172 14.65738281 27.07113281 13.4375 27.0625 C12.24962891 27.05798828 11.06175781 27.05347656 9.83789062 27.04882812 C6.89187774 27.03699675 3.94596319 27.02051287 1 27 C-0.98974803 23.69959882 -1.18869828 21.39656905 -0.9765625 17.578125 C-0.93096191 16.65418945 -0.88536133 15.73025391 -0.83837891 14.77832031 C-0.76796387 13.61397461 -0.69754883 12.44962891 -0.625 11.25 C-0.315625 5.68125 -0.315625 5.68125 0 0 Z " fill="#DCA148" transform="translate(50,13)"/>
<path d="M0 0 C1.07056641 -0.00128906 2.14113281 -0.00257812 3.24414062 -0.00390625 C4.93506836 0.00189453 4.93506836 0.00189453 6.66015625 0.0078125 C8.3452832 0.00201172 8.3452832 0.00201172 10.06445312 -0.00390625 C11.67223633 -0.00197266 11.67223633 -0.00197266 13.3125 0 C14.79544556 0.00169189 14.79544556 0.00169189 16.30834961 0.00341797 C18.72265625 0.1328125 18.72265625 0.1328125 20.72265625 1.1328125 C20.80942533 5.25768088 20.8629692 9.38231634 20.91015625 13.5078125 C20.93529297 14.6834375 20.96042969 15.8590625 20.98632812 17.0703125 C20.99599609 18.19179687 21.00566406 19.31328125 21.015625 20.46875 C21.03133545 21.50563965 21.0470459 22.5425293 21.06323242 23.61083984 C20.95084229 24.44309082 20.83845215 25.2753418 20.72265625 26.1328125 C17.26486202 28.43800865 16.21536597 28.32290296 12.1796875 28.109375 C11.10654297 28.0578125 10.03339844 28.00625 8.92773438 27.953125 C7.80818359 27.88867188 6.68863281 27.82421875 5.53515625 27.7578125 C3.83842773 27.67273438 3.83842773 27.67273438 2.10742188 27.5859375 C-0.68813422 27.44439036 -3.48280216 27.29297085 -6.27734375 27.1328125 C-6.30620912 22.82032641 -6.3240963 18.50786488 -6.33984375 14.1953125 C-6.34822266 12.96361328 -6.35660156 11.73191406 -6.36523438 10.46289062 C-6.36845703 9.29306641 -6.37167969 8.12324219 -6.375 6.91796875 C-6.38023682 5.83394775 -6.38547363 4.74992676 -6.39086914 3.63305664 C-6.18534061 -0.89343307 -3.99853929 0.00456715 0 0 Z " fill="#616F7B" transform="translate(107.27734375,101.8671875)"/>
<path d="M0 0 C1.12019531 -0.00128906 2.24039062 -0.00257812 3.39453125 -0.00390625 C4.57402344 -0.00003906 5.75351562 0.00382812 6.96875 0.0078125 C8.73798828 0.00201172 8.73798828 0.00201172 10.54296875 -0.00390625 C12.22326172 -0.00197266 12.22326172 -0.00197266 13.9375 0 C14.97326172 0.00112793 16.00902344 0.00225586 17.07617188 0.00341797 C19.46875 0.1328125 19.46875 0.1328125 20.46875 1.1328125 C20.55623207 3.05948757 20.57572334 4.98933111 20.56640625 6.91796875 C20.56318359 8.08779297 20.55996094 9.25761719 20.55664062 10.46289062 C20.54826172 11.69458984 20.53988281 12.92628906 20.53125 14.1953125 C20.52673828 15.43087891 20.52222656 16.66644531 20.51757812 17.93945312 C20.50574608 21.00395367 20.48926173 24.06835971 20.46875 27.1328125 C16.15658519 27.32863833 11.8440091 27.51308324 7.53125 27.6953125 C5.68370117 27.77942383 5.68370117 27.77942383 3.79882812 27.86523438 C2.62900391 27.91357422 1.45917969 27.96191406 0.25390625 28.01171875 C-0.83011475 28.0588501 -1.91413574 28.10598145 -3.03100586 28.15454102 C-5.53125 28.1328125 -5.53125 28.1328125 -6.53125 27.1328125 C-6.63096786 25.21822968 -6.66205589 23.29998933 -6.6640625 21.3828125 C-6.66535156 20.2175 -6.66664062 19.0521875 -6.66796875 17.8515625 C-6.66410156 16.624375 -6.66023437 15.3971875 -6.65625 14.1328125 C-6.66011719 12.905625 -6.66398438 11.6784375 -6.66796875 10.4140625 C-6.66667969 9.24875 -6.66539063 8.0834375 -6.6640625 6.8828125 C-6.66293457 5.80515625 -6.66180664 4.7275 -6.66064453 3.6171875 C-6.42131185 -0.97800001 -4.04670367 0.0044068 0 0 Z " fill="#E46D56" transform="translate(17.53125,101.8671875)"/>
<path d="M0 0 C4.269375 -0.020625 8.53875 -0.04125 12.9375 -0.0625 C14.95991821 -0.07615601 14.95991821 -0.07615601 17.02319336 -0.09008789 C18.6030603 -0.09383423 18.6030603 -0.09383423 20.21484375 -0.09765625 C21.84087524 -0.10551147 21.84087524 -0.10551147 23.49975586 -0.11352539 C26 0 26 0 27 1 C27.09959621 2.84159023 27.13080411 4.68696967 27.1328125 6.53125 C27.13474609 8.21154297 27.13474609 8.21154297 27.13671875 9.92578125 C27.13285156 11.10527344 27.12898438 12.28476563 27.125 13.5 C27.13080078 15.26923828 27.13080078 15.26923828 27.13671875 17.07421875 C27.13542969 18.19441406 27.13414062 19.31460938 27.1328125 20.46875 C27.13168457 21.50451172 27.13055664 22.54027344 27.12939453 23.60742188 C27 26 27 26 26 27 C24.07332493 27.08748207 22.14348139 27.10697334 20.21484375 27.09765625 C19.16159912 27.09515869 18.10835449 27.09266113 17.02319336 27.09008789 C15.67491455 27.08098389 14.32663574 27.07187988 12.9375 27.0625 C8.668125 27.041875 4.39875 27.02125 0 27 C0 18.09 0 9.18 0 0 Z " fill="#63707A" transform="translate(101,141)"/>
<path d="M0 0 C1.084021 0.00523682 2.16804199 0.01047363 3.28491211 0.01586914 C5.03964844 0.02070313 5.03964844 0.02070313 6.82983398 0.02563477 C8.67738281 0.03820312 8.67738281 0.03820312 10.56225586 0.05102539 C12.41560547 0.05779297 12.41560547 0.05779297 14.30639648 0.06469727 C17.37089703 0.07652931 20.43530307 0.09301366 23.49975586 0.11352539 C23.52862123 4.42601149 23.54650841 8.73847301 23.56225586 13.05102539 C23.57063477 14.28272461 23.57901367 15.51442383 23.58764648 16.78344727 C23.59248047 18.53818359 23.59248047 18.53818359 23.59741211 20.32836914 C23.60526733 21.95440063 23.60526733 21.95440063 23.61328125 23.61328125 C23.49975586 26.11352539 23.49975586 26.11352539 22.49975586 27.11352539 C20.65816563 27.2131216 18.81278619 27.2443295 16.96850586 27.24633789 C15.84831055 27.24762695 14.72811523 27.24891602 13.57397461 27.25024414 C12.39448242 27.24637695 11.21499023 27.24250977 9.99975586 27.23852539 C8.23051758 27.24432617 8.23051758 27.24432617 6.42553711 27.25024414 C4.74524414 27.24831055 4.74524414 27.24831055 3.03100586 27.24633789 C1.99524414 27.24520996 0.95948242 27.24408203 -0.10766602 27.24291992 C-2.50024414 27.11352539 -2.50024414 27.11352539 -3.50024414 26.11352539 C-3.59984035 24.27193516 -3.63104825 22.42655572 -3.63305664 20.58227539 C-3.6343457 19.46208008 -3.63563477 18.34188477 -3.63696289 17.18774414 C-3.6330957 16.00825195 -3.62922852 14.82875977 -3.62524414 13.61352539 C-3.62911133 12.4340332 -3.63297852 11.25454102 -3.63696289 10.03930664 C-3.63567383 8.91911133 -3.63438477 7.79891602 -3.63305664 6.64477539 C-3.63192871 5.60901367 -3.63080078 4.57325195 -3.62963867 3.50610352 C-3.45159922 0.21405335 -3.30223573 0.1499404 0 0 Z " fill="#E46D56" transform="translate(14.500244140625,140.886474609375)"/>
<path d="M0 0 C1.084021 0.00523682 2.16804199 0.01047363 3.28491211 0.01586914 C5.03964844 0.02070313 5.03964844 0.02070313 6.82983398 0.02563477 C8.67738281 0.03820313 8.67738281 0.03820313 10.56225586 0.05102539 C12.41560547 0.05779297 12.41560547 0.05779297 14.30639648 0.06469727 C17.37089703 0.07652931 20.43530307 0.09301366 23.49975586 0.11352539 C23.52862123 4.42601149 23.54650841 8.73847301 23.56225586 13.05102539 C23.57063477 14.28272461 23.57901367 15.51442383 23.58764648 16.78344727 C23.59248047 18.53818359 23.59248047 18.53818359 23.59741211 20.32836914 C23.60526733 21.95440063 23.60526733 21.95440063 23.61328125 23.61328125 C23.49975586 26.11352539 23.49975586 26.11352539 22.49975586 27.11352539 C20.65816563 27.2131216 18.81278619 27.2443295 16.96850586 27.24633789 C15.84831055 27.24762695 14.72811523 27.24891602 13.57397461 27.25024414 C12.39448242 27.24637695 11.21499023 27.24250977 9.99975586 27.23852539 C8.23051758 27.24432617 8.23051758 27.24432617 6.42553711 27.25024414 C4.74524414 27.24831055 4.74524414 27.24831055 3.03100586 27.24633789 C1.99524414 27.24520996 0.95948242 27.24408203 -0.10766602 27.24291992 C-2.50024414 27.11352539 -2.50024414 27.11352539 -3.50024414 26.11352539 C-3.59984035 24.27193516 -3.63104825 22.42655572 -3.63305664 20.58227539 C-3.6343457 19.46208008 -3.63563477 18.34188477 -3.63696289 17.18774414 C-3.6330957 16.00825195 -3.62922852 14.82875977 -3.62524414 13.61352539 C-3.62911133 12.4340332 -3.63297852 11.25454102 -3.63696289 10.03930664 C-3.63567383 8.91911133 -3.63438477 7.79891602 -3.63305664 6.64477539 C-3.63192871 5.60901367 -3.63080078 4.57325195 -3.62963867 3.50610352 C-3.45159922 0.21405335 -3.30223573 0.1499404 0 0 Z " fill="#DAA047" transform="translate(14.500244140625,12.886474609375)"/>
<path d="M0 0 C8.91 0 17.82 0 27 0 C27 8.58 27 17.16 27 26 C23.96234901 27.01255033 21.88837779 27.12900588 18.7109375 27.1328125 C17.17566406 27.13474609 17.17566406 27.13474609 15.609375 27.13671875 C14.54203125 27.13285156 13.4746875 27.12898438 12.375 27.125 C11.29992187 27.12886719 10.22484375 27.13273437 9.1171875 27.13671875 C8.09625 27.13542969 7.0753125 27.13414063 6.0234375 27.1328125 C5.08419434 27.13168457 4.14495117 27.13055664 3.17724609 27.12939453 C1 27 1 27 0 26 C-0.08748207 24.07332493 -0.10697334 22.14348139 -0.09765625 20.21484375 C-0.09515869 19.16159912 -0.09266113 18.10835449 -0.09008789 17.02319336 C-0.08098389 15.67491455 -0.07187988 14.32663574 -0.0625 12.9375 C-0.041875 8.668125 -0.02125 4.39875 0 0 Z " fill="#DEA247" transform="translate(50,52)"/>
<path d="M0 0 C4.269375 -0.020625 8.53875 -0.04125 12.9375 -0.0625 C14.95991821 -0.07615601 14.95991821 -0.07615601 17.02319336 -0.09008789 C18.6030603 -0.09383423 18.6030603 -0.09383423 20.21484375 -0.09765625 C21.84087524 -0.10551147 21.84087524 -0.10551147 23.49975586 -0.11352539 C26 0 26 0 27 1 C27.09959621 2.84159023 27.13080411 4.68696967 27.1328125 6.53125 C27.13474609 8.21154297 27.13474609 8.21154297 27.13671875 9.92578125 C27.13285156 11.10527344 27.12898438 12.28476563 27.125 13.5 C27.13080078 15.26923828 27.13080078 15.26923828 27.13671875 17.07421875 C27.13542969 18.19441406 27.13414062 19.31460938 27.1328125 20.46875 C27.13168457 21.50451172 27.13055664 22.54027344 27.12939453 23.60742188 C27 26 27 26 26 27 C24.6669823 27.09875585 23.3288568 27.13079205 21.9921875 27.1328125 C21.16976562 27.13410156 20.34734375 27.13539062 19.5 27.13671875 C18.63375 27.13285156 17.7675 27.12898438 16.875 27.125 C15.61042969 27.13080078 15.61042969 27.13080078 14.3203125 27.13671875 C13.49015625 27.13542969 12.66 27.13414063 11.8046875 27.1328125 C10.67522705 27.13112061 10.67522705 27.13112061 9.52294922 27.12939453 C6.33058271 26.96566759 3.16443521 26.45206217 0 26 C0 17.42 0 8.84 0 0 Z " fill="#5BA097" transform="translate(101,52)"/>
<path d="M0 0 C8.58 0 17.16 0 26 0 C26 8.91 26 17.82 26 27 C17.42 27 8.84 27 0 27 C0 18.09 0 9.18 0 0 Z " fill="#63707C" transform="translate(140,141)"/>
<path d="M0 0 C1.02544922 -0.00128906 2.05089844 -0.00257812 3.10742188 -0.00390625 C4.72680664 0.00189453 4.72680664 0.00189453 6.37890625 0.0078125 C7.45462891 0.00394531 8.53035156 0.00007813 9.63867188 -0.00390625 C11.1787793 -0.00197266 11.1787793 -0.00197266 12.75 0 C13.69673584 0.00112793 14.64347168 0.00225586 15.61889648 0.00341797 C17.94140625 0.1328125 17.94140625 0.1328125 19.94140625 1.1328125 C19.94140625 9.7128125 19.94140625 18.2928125 19.94140625 27.1328125 C16.76515625 27.3184375 13.58890625 27.5040625 10.31640625 27.6953125 C9.32688965 27.75662354 8.33737305 27.81793457 7.31787109 27.88110352 C6.12218506 27.94575806 6.12218506 27.94575806 4.90234375 28.01171875 C3.69263916 28.08241577 3.69263916 28.08241577 2.45849609 28.15454102 C-0.46234565 28.12932715 -3.19229394 27.67365814 -6.05859375 27.1328125 C-6.08745912 22.82032641 -6.1053463 18.50786488 -6.12109375 14.1953125 C-6.12947266 12.96361328 -6.13785156 11.73191406 -6.14648438 10.46289062 C-6.14970703 9.29306641 -6.15292969 8.12324219 -6.15625 6.91796875 C-6.16148682 5.83394775 -6.16672363 4.74992676 -6.17211914 3.63305664 C-5.97011465 -0.81582083 -3.94441171 0.00470493 0 0 Z " fill="#62707C" transform="translate(146.05859375,101.8671875)"/>
<path d="M0 0 C8.91 0 17.82 0 27 0 C27 8.58 27 17.16 27 26 C18.09 26 9.18 26 0 26 C0 17.42 0 8.84 0 0 Z " fill="#DFA347" transform="translate(11,52)"/>
<path d="M0 0 C8.58 0 17.16 0 26 0 C26.020625 4.269375 26.04125 8.53875 26.0625 12.9375 C26.071604 14.28577881 26.08070801 15.63405762 26.09008789 17.02319336 C26.09258545 18.07643799 26.09508301 19.12968262 26.09765625 20.21484375 C26.10551147 21.84087524 26.10551147 21.84087524 26.11352539 23.49975586 C26 26 26 26 25 27 C23.14630389 27.08737645 21.28932459 27.10698153 19.43359375 27.09765625 C18.42095459 27.09515869 17.40831543 27.09266113 16.36499023 27.09008789 C15.06891846 27.08098389 13.77284668 27.07187988 12.4375 27.0625 C8.333125 27.041875 4.22875 27.02125 0 27 C0 18.09 0 9.18 0 0 Z " fill="#5C9D93" transform="translate(140,13)"/>
<path d="M0 0 C8.58 0 17.16 0 26 0 C26 8.58 26 17.16 26 26 C22.84266469 26.78933383 20.71552546 27.12810217 17.55859375 27.1328125 C16.31239258 27.13474609 16.31239258 27.13474609 15.04101562 27.13671875 C13.75227539 27.13091797 13.75227539 27.13091797 12.4375 27.125 C11.57447266 27.12886719 10.71144531 27.13273437 9.82226562 27.13671875 C8.99275391 27.13542969 8.16324219 27.13414063 7.30859375 27.1328125 C6.55376709 27.13168457 5.79894043 27.13055664 5.02124023 27.12939453 C3 27 3 27 0 26 C0 17.42 0 8.84 0 0 Z " fill="#5C9D94" transform="translate(140,52)"/>
<path d="M0 0 C4.31248609 -0.02886537 8.62494762 -0.04675255 12.9375 -0.0625 C14.16919922 -0.07087891 15.40089844 -0.07925781 16.66992188 -0.08789062 C17.83974609 -0.09111328 19.00957031 -0.09433594 20.21484375 -0.09765625 C21.84087524 -0.10551147 21.84087524 -0.10551147 23.49975586 -0.11352539 C26 0 26 0 27 1 C27.09959621 2.84159023 27.13080411 4.68696967 27.1328125 6.53125 C27.13474609 8.21154297 27.13474609 8.21154297 27.13671875 9.92578125 C27.13285156 11.10527344 27.12898438 12.28476562 27.125 13.5 C27.13080078 15.26923828 27.13080078 15.26923828 27.13671875 17.07421875 C27.13542969 18.19441406 27.13414062 19.31460938 27.1328125 20.46875 C27.13168457 21.50451172 27.13055664 22.54027344 27.12939453 23.60742188 C27 26 27 26 26 27 C24.07332493 27.08748207 22.14348139 27.10697334 20.21484375 27.09765625 C19.04501953 27.09443359 17.87519531 27.09121094 16.66992188 27.08789062 C15.43822266 27.07951172 14.20652344 27.07113281 12.9375 27.0625 C11.08415039 27.05573242 11.08415039 27.05573242 9.19335938 27.04882812 C6.12885883 27.03699608 3.06445279 27.02051173 0 27 C-1.0162256 21.39194023 -0.96017114 16.23502748 -0.5625 10.5625 C-0.51029297 9.73556641 -0.45808594 8.90863281 -0.40429688 8.05664062 C-0.27590237 6.03734522 -0.13884576 4.01860371 0 2 C0.33 2 0.66 2 1 2 C1 9.59 1 17.18 1 25 C8.92 25 16.84 25 25 25 C25 17.08 25 9.16 25 1 C16.75 1 8.5 1 0 1 C0 0.67 0 0.34 0 0 Z " fill="#618078" transform="translate(101,13)"/>
<path d="M0 0 C1.12019531 -0.00128906 2.24039063 -0.00257812 3.39453125 -0.00390625 C4.57402344 -0.00003906 5.75351562 0.00382812 6.96875 0.0078125 C8.73798828 0.00201172 8.73798828 0.00201172 10.54296875 -0.00390625 C12.22326172 -0.00197266 12.22326172 -0.00197266 13.9375 0 C14.97326172 0.00112793 16.00902344 0.00225586 17.07617188 0.00341797 C19.46875 0.1328125 19.46875 0.1328125 20.46875 1.1328125 C20.55623207 3.05948757 20.57572334 4.98933111 20.56640625 6.91796875 C20.56390869 7.97121338 20.56141113 9.02445801 20.55883789 10.10961914 C20.54973389 11.45789795 20.54062988 12.80617676 20.53125 14.1953125 C20.510625 18.4646875 20.49 22.7340625 20.46875 27.1328125 C11.55875 27.1328125 2.64875 27.1328125 -6.53125 27.1328125 C-7.53125 22.1328125 -7.53125 22.1328125 -7.53125 19.1328125 C-6.87125 19.1328125 -6.21125 19.1328125 -5.53125 19.1328125 C-5.53125 21.4428125 -5.53125 23.7528125 -5.53125 26.1328125 C2.38875 26.1328125 10.30875 26.1328125 18.46875 26.1328125 C18.46875 18.2128125 18.46875 10.2928125 18.46875 2.1328125 C10.54875 2.1328125 2.62875 2.1328125 -5.53125 2.1328125 C-5.53125 6.7528125 -5.53125 11.3728125 -5.53125 16.1328125 C-6.19125 15.8028125 -6.85125 15.4728125 -7.53125 15.1328125 C-7.39098717 12.81996794 -7.24389442 10.50753659 -7.09375 8.1953125 C-7.01253906 6.90753906 -6.93132813 5.61976562 -6.84765625 4.29296875 C-6.33170701 -0.86015395 -4.75553878 0.00517871 0 0 Z " fill="#A86859" transform="translate(56.53125,101.8671875)"/>
<path d="M0 0 C1.12019531 -0.00128906 2.24039062 -0.00257812 3.39453125 -0.00390625 C4.57402344 -0.00003906 5.75351562 0.00382812 6.96875 0.0078125 C8.73798828 0.00201172 8.73798828 0.00201172 10.54296875 -0.00390625 C12.22326172 -0.00197266 12.22326172 -0.00197266 13.9375 0 C14.97326172 0.00112793 16.00902344 0.00225586 17.07617188 0.00341797 C19.46875 0.1328125 19.46875 0.1328125 20.46875 1.1328125 C20.55623207 3.05948757 20.57572334 4.98933111 20.56640625 6.91796875 C20.56318359 8.08779297 20.55996094 9.25761719 20.55664062 10.46289062 C20.54826172 11.69458984 20.53988281 12.92628906 20.53125 14.1953125 C20.52673828 15.43087891 20.52222656 16.66644531 20.51757812 17.93945312 C20.50574608 21.00395367 20.48926173 24.06835971 20.46875 27.1328125 C16.15658519 27.32863833 11.8440091 27.51308324 7.53125 27.6953125 C5.68370117 27.77942383 5.68370117 27.77942383 3.79882812 27.86523438 C2.62900391 27.91357422 1.45917969 27.96191406 0.25390625 28.01171875 C-0.83011475 28.0588501 -1.91413574 28.10598145 -3.03100586 28.15454102 C-5.53125 28.1328125 -5.53125 28.1328125 -6.53125 27.1328125 C-6.63096786 25.21822968 -6.66205589 23.29998933 -6.6640625 21.3828125 C-6.66535156 20.2175 -6.66664062 19.0521875 -6.66796875 17.8515625 C-6.66410156 16.624375 -6.66023437 15.3971875 -6.65625 14.1328125 C-6.66011719 12.905625 -6.66398438 11.6784375 -6.66796875 10.4140625 C-6.66667969 9.24875 -6.66539063 8.0834375 -6.6640625 6.8828125 C-6.66293457 5.80515625 -6.66180664 4.7275 -6.66064453 3.6171875 C-6.42131185 -0.97800001 -4.04670367 0.0044068 0 0 Z M-4.53125 2.1328125 C-4.53125 10.0528125 -4.53125 17.9728125 -4.53125 26.1328125 C3.38875 26.1328125 11.30875 26.1328125 19.46875 26.1328125 C19.46875 18.2128125 19.46875 10.2928125 19.46875 2.1328125 C11.54875 2.1328125 3.62875 2.1328125 -4.53125 2.1328125 Z " fill="#A46A56" transform="translate(17.53125,101.8671875)"/>
<path d="M0 0 C1.084021 0.00523682 2.16804199 0.01047363 3.28491211 0.01586914 C5.03964844 0.02070313 5.03964844 0.02070313 6.82983398 0.02563477 C8.67738281 0.03820312 8.67738281 0.03820312 10.56225586 0.05102539 C12.41560547 0.05779297 12.41560547 0.05779297 14.30639648 0.06469727 C17.37089703 0.07652931 20.43530307 0.09301366 23.49975586 0.11352539 C23.52862123 4.42601149 23.54650841 8.73847301 23.56225586 13.05102539 C23.57063477 14.28272461 23.57901367 15.51442383 23.58764648 16.78344727 C23.59248047 18.53818359 23.59248047 18.53818359 23.59741211 20.32836914 C23.60526733 21.95440063 23.60526733 21.95440063 23.61328125 23.61328125 C23.49975586 26.11352539 23.49975586 26.11352539 22.49975586 27.11352539 C20.65816563 27.2131216 18.81278619 27.2443295 16.96850586 27.24633789 C15.84831055 27.24762695 14.72811523 27.24891602 13.57397461 27.25024414 C12.39448242 27.24637695 11.21499023 27.24250977 9.99975586 27.23852539 C8.23051758 27.24432617 8.23051758 27.24432617 6.42553711 27.25024414 C4.74524414 27.24831055 4.74524414 27.24831055 3.03100586 27.24633789 C1.99524414 27.24520996 0.95948242 27.24408203 -0.10766602 27.24291992 C-2.50024414 27.11352539 -2.50024414 27.11352539 -3.50024414 26.11352539 C-3.59984035 24.27193516 -3.63104825 22.42655572 -3.63305664 20.58227539 C-3.6343457 19.46208008 -3.63563477 18.34188477 -3.63696289 17.18774414 C-3.6330957 16.00825195 -3.62922852 14.82875977 -3.62524414 13.61352539 C-3.62911133 12.4340332 -3.63297852 11.25454102 -3.63696289 10.03930664 C-3.63567383 8.91911133 -3.63438477 7.79891602 -3.63305664 6.64477539 C-3.63192871 5.60901367 -3.63080078 4.57325195 -3.62963867 3.50610352 C-3.45159922 0.21405335 -3.30223573 0.1499404 0 0 Z M-1.50024414 2.11352539 C-1.50024414 10.03352539 -1.50024414 17.95352539 -1.50024414 26.11352539 C6.41975586 26.11352539 14.33975586 26.11352539 22.49975586 26.11352539 C22.49975586 18.19352539 22.49975586 10.27352539 22.49975586 2.11352539 C14.57975586 2.11352539 6.65975586 2.11352539 -1.50024414 2.11352539 Z " fill="#A46959" transform="translate(14.500244140625,140.886474609375)"/>
<path d="M0 0 C4.269375 -0.020625 8.53875 -0.04125 12.9375 -0.0625 C14.95991821 -0.07615601 14.95991821 -0.07615601 17.02319336 -0.09008789 C18.6030603 -0.09383423 18.6030603 -0.09383423 20.21484375 -0.09765625 C21.84087524 -0.10551147 21.84087524 -0.10551147 23.49975586 -0.11352539 C26 0 26 0 27 1 C27.09959621 2.84159023 27.13080411 4.68696967 27.1328125 6.53125 C27.13474609 8.21154297 27.13474609 8.21154297 27.13671875 9.92578125 C27.13285156 11.10527344 27.12898438 12.28476563 27.125 13.5 C27.13080078 15.26923828 27.13080078 15.26923828 27.13671875 17.07421875 C27.13542969 18.19441406 27.13414062 19.31460938 27.1328125 20.46875 C27.13168457 21.50451172 27.13055664 22.54027344 27.12939453 23.60742188 C27 26 27 26 26 27 C24.6669823 27.09875585 23.3288568 27.13079205 21.9921875 27.1328125 C21.16976562 27.13410156 20.34734375 27.13539062 19.5 27.13671875 C18.63375 27.13285156 17.7675 27.12898438 16.875 27.125 C15.61042969 27.13080078 15.61042969 27.13080078 14.3203125 27.13671875 C13.49015625 27.13542969 12.66 27.13414063 11.8046875 27.1328125 C10.67522705 27.13112061 10.67522705 27.13112061 9.52294922 27.12939453 C6.33058271 26.96566759 3.16443521 26.45206217 0 26 C0 17.42 0 8.84 0 0 Z M1 1 C1 8.92 1 16.84 1 25 C8.92 25 16.84 25 25 25 C25 17.08 25 9.16 25 1 C17.08 1 9.16 1 1 1 Z " fill="#5F837C" transform="translate(101,52)"/>
</svg>
